<?xml version="1.0" encoding="UTF-8" standalone="no"?>
<svg
   width="1em"
   height="1em"
   viewBox="0 0 24 24"
   version="1.1"
   id="svg387"
   sodipodi:docname="best-active.svg"
   inkscape:version="1.2.1 (9c6d41e410, 2022-07-14)"
   xmlns:inkscape="http://www.inkscape.org/namespaces/inkscape"
   xmlns:sodipodi="http://sodipodi.sourceforge.net/DTD/sodipodi-0.dtd"
   xmlns="http://www.w3.org/2000/svg"
   xmlns:svg="http://www.w3.org/2000/svg">
  <defs
     id="defs391" />
  <sodipodi:namedview
     id="namedview389"
     pagecolor="#ffffff"
     bordercolor="#111111"
     borderopacity="1"
     inkscape:showpageshadow="0"
     inkscape:pageopacity="0"
     inkscape:pagecheckerboard="1"
     inkscape:deskcolor="#d1d1d1"
     showgrid="false"
     inkscape:zoom="256"
     inkscape:cx="-0.50195312"
     inkscape:cy="0.43554688"
     inkscape:window-width="1366"
     inkscape:window-height="706"
     inkscape:window-x="-8"
     inkscape:window-y="-8"
     inkscape:window-maximized="1"
     inkscape:current-layer="svg387" />
  <path
     fill="currentColor"
     d="m2.45 10.575l3.675 1.575Q6.85 10.3 7.625 9Q8.4 7.7 9.75 6.1l-1.3-.275q-.5-.1-.975.05q-.475.15-.825.5Zm5.125 2.275l3.9 3.925q1.8-.575 3.425-1.587q1.625-1.013 3-2.388q2.2-2.2 3.275-5.025q1.075-2.825.65-5.275q-2.45-.425-5.275.662q-2.825 1.088-5.025 3.288q-1.4 1.4-2.388 3q-.987 1.6-1.562 3.4Zm6.9-3q-.575-.575-.575-1.413q0-.837.575-1.412t1.413-.575q.837 0 1.412.575t.575 1.412q0 .838-.575 1.413q-.575.575-1.412.575q-.838 0-1.413-.575Zm-.7 12.025L17.95 17.7q.35-.35.5-.837q.15-.488.05-.988l-.25-1.3q-1.6 1.35-2.912 2.125q-1.313.775-3.163 1.5ZM4.05 16.05q.875-.875 2.125-.888q1.25-.012 2.125.863t.875 2.125q0 1.25-.875 2.125q-.625.625-2.087 1.075q-1.463.45-4.038.8q.35-2.575.8-4.025q.45-1.45 1.075-2.075Z"
     id="path385"
     style="fill:#00befe;fill-opacity:1" />
</svg>
