<?xml version="1.0" encoding="UTF-8" standalone="no"?>
<svg
   width="1em"
   height="1em"
   viewBox="0 0 24 24"
   version="1.1"
   id="svg8"
   sodipodi:docname="fullscreen.svg"
   inkscape:version="1.2.1 (9c6d41e410, 2022-07-14)"
   xmlns:inkscape="http://www.inkscape.org/namespaces/inkscape"
   xmlns:sodipodi="http://sodipodi.sourceforge.net/DTD/sodipodi-0.dtd"
   xmlns="http://www.w3.org/2000/svg"
   xmlns:svg="http://www.w3.org/2000/svg">
  <defs
     id="defs12" />
  <sodipodi:namedview
     id="namedview10"
     pagecolor="#ffffff"
     bordercolor="#111111"
     borderopacity="1"
     inkscape:showpageshadow="0"
     inkscape:pageopacity="0"
     inkscape:pagecheckerboard="1"
     inkscape:deskcolor="#d1d1d1"
     showgrid="false"
     inkscape:zoom="256"
     inkscape:cx="0.58789062"
     inkscape:cy="0.74804688"
     inkscape:window-width="1366"
     inkscape:window-height="706"
     inkscape:window-x="-8"
     inkscape:window-y="-8"
     inkscape:window-maximized="1"
     inkscape:current-layer="g6" />
  <g
     fill="none"
     id="g6"
     style="stroke-width:0.99769748;stroke-dasharray:none">
    <path
       d="M24 0v24H0V0h24ZM12.593 23.258l-.011.002l-.071.035l-.02.004l-.014-.004l-.071-.035c-.01-.004-.019-.001-.024.005l-.004.01l-.017.428l.005.02l.01.013l.104.074l.015.004l.012-.004l.104-.074l.012-.016l.004-.017l-.017-.427c-.002-.01-.009-.017-.017-.018Zm.265-.113l-.013.002l-.185.093l-.01.01l-.003.011l.018.43l.005.012l.008.007l.201.093c.012.004.023 0 .029-.008l.004-.014l-.034-.614c-.003-.012-.01-.02-.02-.022Zm-.715.002a.023.023 0 0 0-.027.006l-.006.014l-.034.614c0 .012.007.02.017.024l.015-.002l.201-.093l.01-.008l.004-.011l.017-.43l-.003-.012l-.01-.01l-.184-.092Z"
       id="path2"
       style="stroke-width:0.99769748;stroke-dasharray:none" />
    <path
       fill="currentColor"
       d="m 12.793,14.207 a 1,1 0 0 1 1.32,-1.497 L 14.207,12.793 19,17.586 V 15 a 1,1 0 0 1 1.993,-0.117 L 21,15 v 5 a 1,1 0 0 1 -0.883,0.993 L 20,21 H 15 A 1,1 0 0 1 14.883,19.007 L 15,19 h 2.586 z M 3,4 A 1,1 0 0 1 3.883,3.007 L 4,3 H 9 A 1,1 0 0 1 9.117,4.993 L 9,5 H 6.414 l 4.793,4.793 A 1,1 0 0 1 9.887,11.29 L 9.793,11.207 5,6.414 V 9 A 1,1 0 0 1 3.007,9.117 L 3,9 Z"
       id="path4"
       style="fill:#7d7d7d;fill-opacity:1;stroke-width:0.997697;stroke-dasharray:none" />
  </g>
</svg>
