<?xml version="1.0" encoding="UTF-8" standalone="no"?>
<svg
   width="1em"
   height="1em"
   viewBox="0 0 24 24"
   version="1.1"
   id="svg637"
   sodipodi:docname="hot-inactive.svg"
   inkscape:version="1.2.1 (9c6d41e410, 2022-07-14)"
   xmlns:inkscape="http://www.inkscape.org/namespaces/inkscape"
   xmlns:sodipodi="http://sodipodi.sourceforge.net/DTD/sodipodi-0.dtd"
   xmlns="http://www.w3.org/2000/svg"
   xmlns:svg="http://www.w3.org/2000/svg">
  <defs
     id="defs641" />
  <sodipodi:namedview
     id="namedview639"
     pagecolor="#ffffff"
     bordercolor="#111111"
     borderopacity="1"
     inkscape:showpageshadow="0"
     inkscape:pageopacity="0"
     inkscape:pagecheckerboard="1"
     inkscape:deskcolor="#d1d1d1"
     showgrid="false"
     inkscape:zoom="128"
     inkscape:cx="-0.98046875"
     inkscape:cy="0.84765625"
     inkscape:window-width="1366"
     inkscape:window-height="706"
     inkscape:window-x="-8"
     inkscape:window-y="-8"
     inkscape:window-maximized="1"
     inkscape:current-layer="svg637" />
  <path
     fill="currentColor"
     d="M6 14q0 1.3.525 2.462q.525 1.163 1.5 2.038Q8 18.375 8 18.275v-.225q0-.8.3-1.5t.875-1.275L12 12.5l2.825 2.775q.575.575.875 1.275q.3.7.3 1.5v.225q0 .1-.025.225q.975-.875 1.5-2.038Q18 15.3 18 14q0-1.25-.462-2.363q-.463-1.112-1.338-1.987q-.5.325-1.05.487q-.55.163-1.125.163q-1.55 0-2.687-1.025Q10.2 8.25 10.025 6.75Q9.05 7.575 8.3 8.462q-.75.888-1.262 1.8q-.513.913-.775 1.863Q6 13.075 6 14Zm6 1.3l-1.425 1.4q-.275.275-.425.625q-.15.35-.15.725q0 .8.588 1.375Q11.175 20 12 20t1.413-.575Q14 18.85 14 18.05q0-.4-.15-.738q-.15-.337-.425-.612ZM12 3v3.3q0 .85.588 1.425q.587.575 1.437.575q.45 0 .838-.187q.387-.188.687-.563L16 7q1.85 1.05 2.925 2.925Q20 11.8 20 14q0 3.35-2.325 5.675Q15.35 22 12 22q-3.35 0-5.675-2.325Q4 17.35 4 14q0-3.225 2.163-6.125Q8.325 4.975 12 3Z"
     id="path635"
     style="fill:#003ffe;fill-opacity:1" />
</svg>
