<?xml version="1.0" encoding="UTF-8" standalone="no"?>
<svg
   width="1em"
   height="1em"
   viewBox="0 0 1024 1024"
   version="1.1"
   id="svg4"
   sodipodi:docname="rise-outlined.svg"
   inkscape:version="1.2.2 (732a01da63, 2022-12-09)"
   xmlns:inkscape="http://www.inkscape.org/namespaces/inkscape"
   xmlns:sodipodi="http://sodipodi.sourceforge.net/DTD/sodipodi-0.dtd"
   xmlns="http://www.w3.org/2000/svg"
   xmlns:svg="http://www.w3.org/2000/svg">
  <defs
     id="defs8" />
  <sodipodi:namedview
     id="namedview6"
     pagecolor="#ffffff"
     bordercolor="#111111"
     borderopacity="1"
     inkscape:showpageshadow="0"
     inkscape:pageopacity="0"
     inkscape:pagecheckerboard="1"
     inkscape:deskcolor="#d1d1d1"
     showgrid="false"
     showguides="true"
     inkscape:zoom="0.5"
     inkscape:cx="-295"
     inkscape:cy="525"
     inkscape:window-width="1920"
     inkscape:window-height="991"
     inkscape:window-x="-9"
     inkscape:window-y="-9"
     inkscape:window-maximized="1"
     inkscape:current-layer="svg4" />
  <path
     fill="currentColor"
     d="m917 211.1l-199.2 24c-6.6.8-9.4 8.9-4.7 13.6l59.3 59.3l-226 226l-101.8-101.7c-6.3-6.3-16.4-6.2-22.6 0L100.3 754.1a8.03 8.03 0 0 0 0 11.3l45 45.2c3.1 3.1 8.2 3.1 11.3 0L433.3 534L535 635.7c6.3 6.2 16.4 6.2 22.6 0L829 364.5l59.3 59.3a8.01 8.01 0 0 0 13.6-4.7l24-199.2c.7-5.1-3.7-9.5-8.9-8.8z"
     id="path2"
     style="fill:#00befe;fill-opacity:1" />
</svg>
