<?xml version="1.0" encoding="UTF-8" standalone="no"?>
<!-- Created with Inkscape (http://www.inkscape.org/) -->

<svg
   width="85mm"
   height="81mm"
   viewBox="0 0 85 81"
   version="1.1"
   id="svg3344"
   inkscape:version="1.2.1 (9c6d41e410, 2022-07-14)"
   sodipodi:docname="wettit-logo.svg"
   xmlns:inkscape="http://www.inkscape.org/namespaces/inkscape"
   xmlns:sodipodi="http://sodipodi.sourceforge.net/DTD/sodipodi-0.dtd"
   xmlns="http://www.w3.org/2000/svg"
   xmlns:svg="http://www.w3.org/2000/svg">
  <sodipodi:namedview
     id="namedview3346"
     pagecolor="#ffffff"
     bordercolor="#111111"
     borderopacity="1"
     inkscape:showpageshadow="0"
     inkscape:pageopacity="0"
     inkscape:pagecheckerboard="1"
     inkscape:deskcolor="#d1d1d1"
     inkscape:document-units="mm"
     showgrid="false"
     inkscape:zoom="0.4676978"
     inkscape:cx="864.87471"
     inkscape:cy="236.26367"
     inkscape:window-width="1366"
     inkscape:window-height="706"
     inkscape:window-x="-8"
     inkscape:window-y="-8"
     inkscape:window-maximized="1"
     inkscape:current-layer="layer1" />
  <defs
     id="defs3341" />
  <g
     inkscape:label="Шар 1"
     inkscape:groupmode="layer"
     id="layer1">
    <ellipse
       style="fill:#0000ff;stroke:#01bfff;stroke-width:6.12359"
       id="path7173"
       cx="42.830654"
       cy="40.640896"
       rx="38.946777"
       ry="37.249626" />
    <path
       style="fill:#0000ff;stroke:#01bfff;stroke-width:6.12359"
       id="path7177"
       d="m 11.022995,60.147059 c 1.08598,0.29779 2.166002,0.62157 3.258229,0.89667 1.078914,0.26445 2.184153,0.36678 3.289715,0.42162 0.988083,0.0852 1.911209,-0.22452 2.802993,-0.62087 0.97714,-0.42652 1.925256,-0.9357 2.801389,-1.54951 0.934763,-0.71859 1.772902,-1.54824 2.541819,-2.44459 1.005053,-1.29615 2.010061,-2.58911 3.077454,-3.83425 1.029359,-1.12065 2.012438,-2.28236 2.98762,-3.45165 0.835984,-1.00025 1.811129,-1.86023 2.712804,-2.79571 0.981467,-1.16801 2.132642,-2.14058 3.361109,-3.02589 1.212787,-0.8777 2.536157,-1.545371 3.907927,-2.118715 1.15491,-0.437483 2.36576,-0.686422 3.57866,-0.889735 1.22589,-0.171937 2.46515,-0.195004 3.70059,-0.211819 1.09146,0.114287 2.18382,0.248166 3.26984,0.409506 0.86764,0.125168 1.72415,0.383346 2.52522,0.744708 0.67898,0.366256 1.34597,0.747615 2.00387,1.151125 1.02755,0.55549 1.95391,1.28506 2.87598,2.0031 0.75861,0.68678 1.61452,1.23249 2.44908,1.81365 1.11748,0.71681 2.16303,1.53781 3.27879,2.25714 0.97251,0.63229 2.02721,1.096 3.10406,1.50612 1.02173,0.3009 2.0106,0.69995 3.01866,1.04168 0.94891,0.31722 1.91527,0.56695 2.87854,0.83329 0.64671,0.18128 1.30652,0.3127 1.966,0.43684 0.53088,0.0792 1.07139,0.13679 1.58095,0.31585 0,0 -0.31424,-0.24809 -0.31424,-0.24809 v 0 c -0.51309,-0.16753 -1.05026,-0.23069 -1.58162,-0.30937 -0.65794,-0.12492 -1.31619,-0.25651 -1.96161,-0.43747 -0.96288,-0.26212 -1.92602,-0.51671 -2.87381,-0.83253 -1.00753,-0.34388 -1.99804,-0.73836 -3.01859,-1.04346 -0.83619,-0.32083 -1.66735,-0.66225 -2.44109,-1.12182 -1.11706,-0.71646 -2.16049,-1.53931 -3.27797,-2.2552 -0.83126,-0.58301 -1.69025,-1.12181 -2.44583,-1.81016 -0.92233,-0.71894 -1.85645,-1.43711 -2.8763,-2.00792 -0.8777,-0.53904 -1.76482,-1.057905 -2.67346,-1.541004 -0.80467,-0.353154 -1.65891,-0.612176 -2.52777,-0.733208 -1.08685,-0.15767 -2.17869,-0.29736 -3.27134,-0.402915 -1.23648,0.01864 -2.47677,0.04321 -3.7035,0.216961 -1.21429,0.206827 -2.42771,0.455153 -3.58314,0.897372 -1.37157,0.577237 -2.69202,1.254014 -3.907007,2.129794 -1.22903,0.88845 -2.387049,1.85757 -3.368074,3.02961 -0.90157,0.93712 -1.883486,1.79192 -2.716332,2.79686 -0.971566,1.1715 -1.951291,2.33533 -2.980071,3.45562 -1.066041,1.2463 -2.076941,2.5354 -3.083699,3.83038 -0.767528,0.89485 -1.607351,1.71855 -2.543328,2.432 -0.874448,0.61017 -1.814654,1.12626 -2.790933,1.54731 -0.892472,0.38849 -1.813929,0.68826 -2.798771,0.60194 -1.102102,-0.0537 -2.203589,-0.15766 -3.278689,-0.42283 -1.095723,-0.27806 -2.183895,-0.59361 -3.267256,-0.91497 0,0 0.313131,0.25454 0.313131,0.25454 z" />
    <path
       style="fill:#0000ff;stroke:#01bfff;stroke-width:2.0412;stroke-dasharray:none"
       id="path7181"
       d="m 40.132104,13.216119 c 0.0644,0.637456 -0.15913,1.184071 -0.46446,1.725637 -0.59786,0.931032 -1.34483,1.739552 -2.142302,2.495588 -0.752362,0.65455 -1.417027,1.357105 -1.868976,2.25593 -0.423581,0.990865 -0.726269,2.027184 -0.967641,3.07733 -0.249783,1.351388 -0.479694,2.732981 -0.422577,4.111708 0.131143,1.030382 0.533211,2.003038 1.091024,2.867072 0.376787,0.701315 1.001598,1.115078 1.64663,1.526142 0.900776,0.554821 1.923712,0.806239 2.954742,0.964593 0.85093,0.111859 1.71024,0.131197 2.56717,0.14202 0.64687,0.03971 1.26181,-0.0041 1.87846,-0.207018 0.79607,-0.379507 1.21766,-0.833091 1.5371,-1.658326 0.27221,-0.709294 0.40302,-1.459527 0.4694,-2.214459 0.0452,-0.733002 0.0383,-1.467931 0.0367,-2.20197 -0.006,-0.72773 0.0399,-1.453667 -0.095,-2.1713 -0.23384,-0.79521 -0.70126,-1.49615 -1.11266,-2.206638 -0.31838,-0.610139 -0.70604,-1.121698 -1.21513,-1.574665 -0.38471,-0.411607 -0.6605,-0.906449 -1.02824,-1.33321 -0.44,-0.558538 -0.78164,-1.175427 -1.12156,-1.798477 -0.36757,-0.612601 -0.50241,-1.30964 -0.60775,-2.007964 0,0 -0.35127,-0.175127 -0.35127,-0.175127 v 0 c 0.10461,0.701125 0.23364,1.404313 0.60115,2.020429 0.34053,0.62343 0.67796,1.242712 1.11459,1.804827 0.37161,0.425629 0.64993,0.91835 1.02719,1.3385 0.54519,0.480022 0.87502,0.916652 1.22287,1.564058 0.41138,0.706667 0.87474,1.404998 1.1166,2.193484 0.13911,0.715169 0.0935,1.4394 0.10015,2.165403 2.1e-4,0.732592 0.006,1.466064 -0.0373,2.197647 -0.0646,0.751741 -0.18986,1.499443 -0.46184,2.205622 -0.3144,0.814004 -0.73171,1.260262 -1.52058,1.627074 -0.61456,0.19624 -1.22866,0.232607 -1.87124,0.196487 -0.85466,-0.0097 -1.7117,-0.02872 -2.56006,-0.143634 -0.63105,-0.100159 -1.2428,-0.238224 -1.848369,-0.448151 -0.424443,-0.14714 -0.278277,-0.227043 -0.428663,-0.134674 -0.643347,-0.410459 -1.278405,-0.810424 -1.655738,-1.511615 -0.562211,-0.857182 -0.965013,-1.824155 -1.104141,-2.849798 -0.06073,-1.375947 0.160644,-2.755467 0.415234,-4.103481 0.245252,-1.045519 0.548374,-2.077338 0.970055,-3.065095 0.451767,-0.892433 1.108167,-1.595924 1.856236,-2.247739 0.801456,-0.758074 1.551546,-1.569671 2.156726,-2.500646 0.30776,-0.545506 0.53852,-1.098231 0.48031,-1.74079 0,0 -0.35686,-0.184774 -0.35686,-0.184774 z" />
    <path
       style="fill:#01bfff;fill-opacity:1;stroke:#00befe;stroke-width:4.36437;stroke-dasharray:none;stroke-opacity:1"
       d="m 39.801064,30.843573 c -2.169801,-0.323136 -3.07453,-1.021347 -3.83572,-2.960154 -0.39836,-1.014651 -0.188831,-3.511592 0.48953,-5.833676 0.467172,-1.599174 0.684416,-1.953778 2.14608,-3.503007 l 1.62629,-1.723718 0.70665,1.257859 c 0.38866,0.691823 1.1651,1.797957 1.72541,2.458077 0.56031,0.66012 1.292,1.674038 1.62597,2.253153 0.55823,0.967986 0.60722,1.261498 0.60722,3.63807 0,4.544049 -0.61785,5.079623 -5.09143,4.413396 z"
       id="path8051" />
    <path
       style="fill:#01bfff;fill-opacity:1;stroke:#15c4ff;stroke-width:4.36437;stroke-dasharray:none;stroke-opacity:1"
       d="m 40.310534,28.608602 c -1.62513,-0.271055 -2.290988,-0.975909 -2.290988,-2.425165 0,-1.170727 0.708518,-4.002677 1.212298,-4.845551 l 0.47491,-0.79457 0.66636,0.79457 c 0.3665,0.437015 1.01783,1.316996 1.44738,1.955515 0.7502,1.115128 0.78102,1.24605 0.78102,3.317543 v 2.156592 l -0.85912,-0.03169 c -0.47252,-0.01745 -1.11685,-0.07469 -1.43186,-0.127229 z"
       id="path8053" />
    <path
       style="fill:#01bfff;fill-opacity:1;stroke:#00befe;stroke-width:4.36437;stroke-dasharray:none;stroke-opacity:1"
       d="m 38.706844,74.493979 c -0.31501,-0.0565 -1.552149,-0.2704 -2.749187,-0.47529 -5.841459,-0.99984 -12.236346,-4.03057 -16.992037,-8.05303 l -1.450397,-1.22677 1.299298,-0.16504 c 2.663675,-0.33835 6.260872,-2.36828 8.437384,-4.76129 0.693025,-0.76196 2.538719,-2.92644 4.101548,-4.80996 3.941163,-4.74989 7.716221,-8.42674 9.780041,-9.52562 2.95695,-1.57443 6.23906,-2.07404 9.85588,-1.50028 2.24007,0.35535 4.0532,1.24023 6.41646,3.13147 2.46642,1.97381 7.43206,5.2056 9.03713,5.88165 1.89157,0.79673 7.43435,2.5508 8.06054,2.55085 0.22051,2e-5 0.40092,0.0886 0.40092,0.19695 0,0.1083 -0.73904,1.33928 -1.64231,2.73551 -2.05609,3.17821 -6.2278,7.48868 -9.2852,9.59406 -4.06128,2.79668 -8.9287,4.88015 -13.7805,5.89867 -1.62061,0.34021 -3.37353,0.48642 -6.56396,0.54752 -2.39408,0.0458 -4.61061,0.0371 -4.92561,-0.0194 z"
       id="path9018" />
    <path
       style="fill:#01bfff;fill-opacity:1;stroke:#00befe;stroke-width:2.04119;stroke-dasharray:none;stroke-opacity:1"
       id="path11249"
       d="m 41.003164,15.704391 c 0.005,-0.149072 0.0251,-0.296939 0.0434,-0.444723 0,0 -0.33742,-0.180706 -0.33742,-0.180706 v 0 c -0.0217,0.14549 -0.0439,0.290948 -0.0582,0.43745 0,0 0.35216,0.187979 0.35216,0.187979 z" />
    <path
       style="fill:#01bfff;fill-opacity:1;stroke:#00befe;stroke-width:2.04119;stroke-dasharray:none;stroke-opacity:1"
       id="path11251"
       d="m 41.289934,14.555415 c 0.011,-0.129969 0.006,-0.05847 0.0152,-0.214565 0,0 -0.34513,-0.182166 -0.34513,-0.182166 v 0 c -0.0142,0.151105 -0.006,0.08236 -0.023,0.206452 0,0 0.35296,0.190279 0.35296,0.190279 z" />
    <path
       style="fill:#01bfff;fill-opacity:1;stroke:#00befe;stroke-width:2.04119;stroke-dasharray:none;stroke-opacity:1"
       id="path11263"
       d="m 40.898444,14.112435 c 0.0407,-0.05487 0.0828,-0.108374 0.12296,-0.163722 0,0 -0.33995,-0.204826 -0.33995,-0.204826 v 0 c -0.0408,0.05513 -0.0832,0.10852 -0.12743,0.160835 0,0 0.34442,0.207713 0.34442,0.207713 z" />
    <path
       style="fill:#01bfff;fill-opacity:1;stroke:#00befe;stroke-width:2.04119;stroke-dasharray:none;stroke-opacity:1"
       id="path11267"
       d="m 41.003644,13.806531 c 0.003,-0.01869 0.006,-0.03738 0.009,-0.05607 0,0 -0.35128,-0.189732 -0.35128,-0.189732 v 0 c -0.003,0.01798 -0.007,0.03597 -0.0104,0.05395 0,0 0.35313,0.191854 0.35313,0.191854 z" />
    <path
       style="fill:#01bfff;fill-opacity:1;stroke:#00befe;stroke-width:2.04119;stroke-dasharray:none;stroke-opacity:1"
       id="path11271"
       d="m 41.342304,14.094004 c -0.002,-0.06379 -0.002,-0.127605 -0.002,-0.191412 0,0 -0.35286,-0.182702 -0.35286,-0.182702 v 0 c -2.1e-4,0.06311 -2.1e-4,0.126243 -0.002,0.189339 0,0 0.35686,0.184775 0.35686,0.184775 z" />
  </g>
</svg>
