<?xml version="1.0" encoding="UTF-8" standalone="no"?>
<svg
   width="1em"
   height="1em"
   viewBox="0 0 16 16"
   version="1.1"
   id="svg6669"
   sodipodi:docname="chat-dots.svg"
   inkscape:version="1.2.1 (9c6d41e410, 2022-07-14)"
   xmlns:inkscape="http://www.inkscape.org/namespaces/inkscape"
   xmlns:sodipodi="http://sodipodi.sourceforge.net/DTD/sodipodi-0.dtd"
   xmlns="http://www.w3.org/2000/svg"
   xmlns:svg="http://www.w3.org/2000/svg">
  <defs
     id="defs6673" />
  <sodipodi:namedview
     id="namedview6671"
     pagecolor="#ffffff"
     bordercolor="#111111"
     borderopacity="1"
     inkscape:showpageshadow="0"
     inkscape:pageopacity="0"
     inkscape:pagecheckerboard="1"
     inkscape:deskcolor="#d1d1d1"
     showgrid="false"
     inkscape:zoom="256"
     inkscape:cx="-0.50195312"
     inkscape:cy="0.74804688"
     inkscape:window-width="1366"
     inkscape:window-height="706"
     inkscape:window-x="-8"
     inkscape:window-y="-8"
     inkscape:window-maximized="1"
     inkscape:current-layer="svg6669" />
  <g
     fill="currentColor"
     id="g6667"
     style="fill:#00befe;fill-opacity:1">
    <path
       d="M5 8a1 1 0 1 1-2 0a1 1 0 0 1 2 0zm4 0a1 1 0 1 1-2 0a1 1 0 0 1 2 0zm3 1a1 1 0 1 0 0-2a1 1 0 0 0 0 2z"
       id="path6663"
       style="fill:#00befe;fill-opacity:1" />
    <path
       d="m2.165 15.803l.02-.004c1.83-.363 2.948-.842 3.468-1.105A9.06 9.06 0 0 0 8 15c4.418 0 8-3.134 8-7s-3.582-7-8-7s-8 3.134-8 7c0 1.76.743 3.37 1.97 4.6a10.437 10.437 0 0 1-.524 2.318l-.003.011a10.722 10.722 0 0 1-.244.637c-.079.186.074.394.273.362a21.673 21.673 0 0 0 .693-.125zm.8-3.108a1 1 0 0 0-.287-.801C1.618 10.83 1 9.468 1 8c0-3.192 3.004-6 7-6s7 2.808 7 6c0 3.193-3.004 6-7 6a8.06 8.06 0 0 1-2.088-.272a1 1 0 0 0-.711.074c-.387.196-1.24.57-2.634.893a10.97 10.97 0 0 0 .398-2z"
       id="path6665"
       style="fill:#00befe;fill-opacity:1" />
  </g>
</svg>
