<?xml version="1.0" encoding="UTF-8" standalone="no"?>
<svg
   width="1em"
   height="1em"
   viewBox="0 0 24 24"
   version="1.1"
   id="svg262"
   sodipodi:docname="hot-active.svg"
   inkscape:version="1.2.1 (9c6d41e410, 2022-07-14)"
   xmlns:inkscape="http://www.inkscape.org/namespaces/inkscape"
   xmlns:sodipodi="http://sodipodi.sourceforge.net/DTD/sodipodi-0.dtd"
   xmlns="http://www.w3.org/2000/svg"
   xmlns:svg="http://www.w3.org/2000/svg">
  <defs
     id="defs266" />
  <sodipodi:namedview
     id="namedview264"
     pagecolor="#ffffff"
     bordercolor="#111111"
     borderopacity="1"
     inkscape:showpageshadow="0"
     inkscape:pageopacity="0"
     inkscape:pagecheckerboard="1"
     inkscape:deskcolor="#d1d1d1"
     showgrid="false"
     inkscape:zoom="256"
     inkscape:cx="-0.50195312"
     inkscape:cy="0.43554688"
     inkscape:window-width="1366"
     inkscape:window-height="706"
     inkscape:window-x="-8"
     inkscape:window-y="-8"
     inkscape:window-maximized="1"
     inkscape:current-layer="svg262" />
  <path
     fill="currentColor"
     d="M4 14q0 2.2 1.075 4.012Q6.15 19.825 7.9 20.875q-.425-.6-.662-1.313Q7 18.85 7 18.05q0-1 .375-1.875t1.1-1.6L12 11.1l3.55 3.475q.7.7 1.075 1.588q.375.887.375 1.887q0 .8-.237 1.512q-.238.713-.663 1.313q1.75-1.05 2.825-2.863Q20 16.2 20 14q0-2.225-1.1-4.088Q17.8 8.05 16 7l-.45.55q-.325.4-.712.575q-.388.175-.813.175q-.775 0-1.4-.538Q12 7.225 12 6.3V3l-1.25.737Q9.5 4.475 8 5.875t-2.75 3.45Q4 11.375 4 14Zm8-.1l-2.125 2.075q-.425.425-.65.963Q9 17.475 9 18.05q0 1.225.875 2.087Q10.75 21 12 21t2.125-.863Q15 19.275 15 18.05q0-.6-.225-1.125t-.65-.95Z"
     id="path260"
     style="fill:#00befe;fill-opacity:1" />
</svg>
