<?xml version="1.0" encoding="UTF-8" standalone="no"?>
<svg
   width="1em"
   height="1em"
   viewBox="0 0 24 24"
   version="1.1"
   id="svg4"
   sodipodi:docname="share.svg"
   inkscape:version="1.2.1 (9c6d41e410, 2022-07-14)"
   xmlns:inkscape="http://www.inkscape.org/namespaces/inkscape"
   xmlns:sodipodi="http://sodipodi.sourceforge.net/DTD/sodipodi-0.dtd"
   xmlns="http://www.w3.org/2000/svg"
   xmlns:svg="http://www.w3.org/2000/svg">
  <defs
     id="defs8" />
  <sodipodi:namedview
     id="namedview6"
     pagecolor="#ffffff"
     bordercolor="#111111"
     borderopacity="1"
     inkscape:showpageshadow="0"
     inkscape:pageopacity="0"
     inkscape:pagecheckerboard="1"
     inkscape:deskcolor="#d1d1d1"
     showgrid="false"
     inkscape:zoom="256"
     inkscape:cx="-0.50195312"
     inkscape:cy="0.12304688"
     inkscape:window-width="1366"
     inkscape:window-height="706"
     inkscape:window-x="-8"
     inkscape:window-y="-8"
     inkscape:window-maximized="1"
     inkscape:current-layer="svg4" />
  <path
     fill="currentColor"
     d="M18 22q-1.25 0-2.125-.875T15 19q0-.175.025-.363q.025-.187.075-.337l-7.05-4.1q-.425.375-.95.587Q6.575 15 6 15q-1.25 0-2.125-.875T3 12q0-1.25.875-2.125T6 9q.575 0 1.1.212q.525.213.95.588l7.05-4.1q-.05-.15-.075-.337Q15 5.175 15 5q0-1.25.875-2.125T18 2q1.25 0 2.125.875T21 5q0 1.25-.875 2.125T18 8q-.575 0-1.1-.213q-.525-.212-.95-.587L8.9 11.3q.05.15.075.337Q9 11.825 9 12t-.025.362q-.025.188-.075.338l7.05 4.1q.425-.375.95-.588Q17.425 16 18 16q1.25 0 2.125.875T21 19q0 1.25-.875 2.125T18 22Z"
     id="path2"
     style="fill:#7d7d7d;fill-opacity:1" />
</svg>
