<?xml version="1.0" encoding="UTF-8" standalone="no"?>
<svg
   width="1em"
   height="1em"
   viewBox="0 0 24 24"
   version="1.1"
   id="svg4"
   sodipodi:docname="top-inactive.svg"
   inkscape:version="1.2.1 (9c6d41e410, 2022-07-14)"
   xmlns:inkscape="http://www.inkscape.org/namespaces/inkscape"
   xmlns:sodipodi="http://sodipodi.sourceforge.net/DTD/sodipodi-0.dtd"
   xmlns="http://www.w3.org/2000/svg"
   xmlns:svg="http://www.w3.org/2000/svg">
  <defs
     id="defs8" />
  <sodipodi:namedview
     id="namedview6"
     pagecolor="#ffffff"
     bordercolor="#111111"
     borderopacity="1"
     inkscape:showpageshadow="0"
     inkscape:pageopacity="0"
     inkscape:pagecheckerboard="1"
     inkscape:deskcolor="#d1d1d1"
     showgrid="false"
     inkscape:zoom="256"
     inkscape:cx="-0.50195312"
     inkscape:cy="1.0605469"
     inkscape:window-width="1366"
     inkscape:window-height="706"
     inkscape:window-x="-8"
     inkscape:window-y="-8"
     inkscape:window-maximized="1"
     inkscape:current-layer="svg4" />
  <path
     fill="currentColor"
     d="M4 11v8h4v-8H4Zm6-6v14h4V5h-4Zm6 8v6h4v-6h-4Zm4 8H4q-.825 0-1.412-.587Q2 19.825 2 19v-8q0-.825.588-1.413Q3.175 9 4 9h4V5q0-.825.588-1.413Q9.175 3 10 3h4q.825 0 1.413.587Q16 4.175 16 5v6h4q.825 0 1.413.587Q22 12.175 22 13v6q0 .825-.587 1.413Q20.825 21 20 21Z"
     id="path2"
     style="fill:#003ffe;fill-opacity:1" />
</svg>
