<?xml version="1.0" encoding="UTF-8" standalone="no"?>
<svg
   width="1em"
   height="1em"
   viewBox="0 0 32 32"
   version="1.1"
   id="svg6"
   sodipodi:docname="user-avatar-filled.svg"
   inkscape:version="1.2.1 (9c6d41e410, 2022-07-14)"
   xmlns:inkscape="http://www.inkscape.org/namespaces/inkscape"
   xmlns:sodipodi="http://sodipodi.sourceforge.net/DTD/sodipodi-0.dtd"
   xmlns="http://www.w3.org/2000/svg"
   xmlns:svg="http://www.w3.org/2000/svg">
  <defs
     id="defs10" />
  <sodipodi:namedview
     id="namedview8"
     pagecolor="#ffffff"
     bordercolor="#111111"
     borderopacity="1"
     inkscape:showpageshadow="0"
     inkscape:pageopacity="0"
     inkscape:pagecheckerboard="1"
     inkscape:deskcolor="#d1d1d1"
     showgrid="false"
     inkscape:zoom="256"
     inkscape:cx="-0.50195312"
     inkscape:cy="-0.50195312"
     inkscape:window-width="1366"
     inkscape:window-height="706"
     inkscape:window-x="-8"
     inkscape:window-y="-8"
     inkscape:window-maximized="1"
     inkscape:current-layer="svg6" />
  <path
     fill="none"
     d="M8.007 24.93A4.996 4.996 0 0 1 13 20h6a4.996 4.996 0 0 1 4.993 4.93a11.94 11.94 0 0 1-15.986 0ZM20.5 12.5A4.5 4.5 0 1 1 16 8a4.5 4.5 0 0 1 4.5 4.5Z"
     id="path2" />
  <path
     fill="currentColor"
     d="M26.749 24.93A13.99 13.99 0 1 0 2 16a13.899 13.899 0 0 0 3.251 8.93l-.02.017c.07.084.15.156.222.239c.09.103.187.2.28.3c.28.304.568.596.87.87c.092.084.187.162.28.242c.32.276.649.538.99.782c.044.03.084.069.128.1v-.012a13.901 13.901 0 0 0 16 0v.012c.044-.031.083-.07.128-.1c.34-.245.67-.506.99-.782c.093-.08.188-.159.28-.242c.302-.275.59-.566.87-.87c.093-.1.189-.197.28-.3c.071-.083.152-.155.222-.24ZM16 8a4.5 4.5 0 1 1-4.5 4.5A4.5 4.5 0 0 1 16 8ZM8.007 24.93A4.996 4.996 0 0 1 13 20h6a4.996 4.996 0 0 1 4.993 4.93a11.94 11.94 0 0 1-15.986 0Z"
     id="path4"
     style="fill:#00befe;fill-opacity:1" />
</svg>
