<?xml version="1.0" encoding="UTF-8" standalone="no"?>
<svg
   width="1em"
   height="1em"
   viewBox="0 0 24 24"
   version="1.1"
   id="svg4"
   sodipodi:docname="water-drop.svg"
   inkscape:version="1.2.1 (9c6d41e410, 2022-07-14)"
   xmlns:inkscape="http://www.inkscape.org/namespaces/inkscape"
   xmlns:sodipodi="http://sodipodi.sourceforge.net/DTD/sodipodi-0.dtd"
   xmlns="http://www.w3.org/2000/svg"
   xmlns:svg="http://www.w3.org/2000/svg">
  <defs
     id="defs8" />
  <sodipodi:namedview
     id="namedview6"
     pagecolor="#ffffff"
     bordercolor="#111111"
     borderopacity="1"
     inkscape:showpageshadow="0"
     inkscape:pageopacity="0"
     inkscape:pagecheckerboard="1"
     inkscape:deskcolor="#d1d1d1"
     showgrid="false"
     inkscape:zoom="256"
     inkscape:cx="-0.50195312"
     inkscape:cy="-0.50195312"
     inkscape:window-width="1366"
     inkscape:window-height="706"
     inkscape:window-x="-8"
     inkscape:window-y="-8"
     inkscape:window-maximized="1"
     inkscape:current-layer="svg4" />
  <path
     fill="currentColor"
     d="M12.275 19q.3-.025.513-.237q.212-.213.212-.513q0-.35-.225-.562q-.225-.213-.575-.188q-1.025.075-2.175-.562q-1.15-.638-1.45-2.313q-.05-.275-.263-.45Q8.1 14 7.825 14q-.35 0-.575.262q-.225.263-.15.613q.425 2.275 2 3.25q1.575.975 3.175.875ZM12 22q-3.425 0-5.712-2.35Q4 17.3 4 13.8q0-2.5 1.988-5.437Q7.975 5.425 12 2q4.025 3.425 6.013 6.363Q20 11.3 20 13.8q0 3.5-2.288 5.85Q15.425 22 12 22Z"
     id="path2"
     style="fill:#00befe;fill-opacity:1" />
</svg>
